Coordinates
version=1
nRows=9
nColumns=63
inDegrees=yes

Units are S.I. units (second, meters, Newtons, ...)
If the header above contains a line with 'inDegrees', this indicates whether rotational values are in degrees (yes) or radians (no).

endheader
time	pelvis_tilt	pelvis_list	pelvis_rotation	pelvis_tx	pelvis_ty	pelvis_tz	hip_flexion_r	hip_adduction_r	hip_rotation_r	knee_angle_r	knee_angle_r_beta	ankle_angle_r	subtalar_angle_r	mtp_angle_r	hip_flexion_l	hip_adduction_l	hip_rotation_l	knee_angle_l	knee_angle_l_beta	ankle_angle_l	subtalar_angle_l	mtp_angle_l	L5_S1_Flex_Ext	L5_S1_Lat_Bending	L5_S1_axial_rotation	L4_L5_Flex_Ext	L4_L5_Lat_Bending	L4_L5_axial_rotation	L3_L4_Flex_Ext	L3_L4_Lat_Bending	L3_L4_axial_rotation	L2_L3_Flex_Ext	L2_L3_Lat_Bending	L2_L3_axial_rotation	L1_L2_Flex_Ext	L1_L2_Lat_Bending	L1_L2_axial_rotation	L1_T12_Flex_Ext	L1_T12_Lat_Bending	L1_T12_axial_rotation	Abs_r3	Abs_r2	Abs_r1	Abs_t1	Abs_t2	neck_flexion	neck_bending	neck_rotation	arm_flex_r	arm_add_r	arm_rot_r	elbow_flex_r	pro_sup_r	wrist_flex_r	wrist_dev_r	arm_flex_l	arm_add_l	arm_rot_l	elbow_flex_l	pro_sup_l	wrist_flex_l	wrist_dev_l
2.016949	3.888135	-4.526586	73.807931	0.254498	0.978061	0.621986	5.921334	-0.756005	-3.502384	19.685658	0.343580	45.496556	18.233182	0.000000	1.997199	-0.810670	1.145416	16.915328	0.295228	43.590237	-10.729519	0.000000	-0.173648	0.004866	-0.910453	-0.322481	0.006472	-0.967357	-0.285286	0.011831	-0.967357	-0.198462	0.011831	-0.796647	-0.161249	0.009923	-0.739743	-0.099222	0.007537	-0.682840	-1.240349	0.055045	-5.063668	0.000000	0.000000	-4.348844	0.988563	-15.005425	38.002986	-5.081482	-5.105944	131.090122	91.301490	-9.489835	11.424333	55.379344	-8.412856	13.581677	121.692112	88.136667	-2.810627	11.582101
2.033898	3.798012	-4.895693	73.065299	0.253704	0.977414	0.622356	6.613940	-0.754669	-2.926950	20.016218	0.349349	45.645644	18.240071	0.000000	2.398327	-0.728134	0.784179	17.050339	0.297585	43.514621	-11.206094	0.000000	-0.176368	0.072062	-0.905569	-0.327532	0.095843	-0.962167	-0.289754	0.175212	-0.962167	-0.201570	0.175212	-0.792373	-0.163775	0.146949	-0.735775	-0.100776	0.111625	-0.679177	-1.259776	0.815183	-5.036503	0.000000	0.000000	-5.119337	0.042770	-13.288424	37.396628	-3.066273	-1.996173	130.345283	90.784466	-11.977915	9.870510	53.830595	-7.584402	14.813481	122.487802	88.500931	-0.756433	12.673837
2.050847	3.724538	-5.283088	72.287358	0.252802	0.976715	0.622754	7.330472	-0.718639	-2.329510	20.340462	0.355008	45.784379	18.256577	0.000000	2.828316	-0.661044	0.454331	17.221261	0.300568	43.421703	-11.793045	0.000000	-0.178423	0.144669	-0.908731	-0.331350	0.192409	-0.965527	-0.293131	0.351747	-0.965527	-0.203920	0.351747	-0.795140	-0.165684	0.295008	-0.738344	-0.101951	0.224092	-0.681549	-1.274458	1.636520	-5.054091	0.000000	0.000000	-5.813252	-0.942207	-11.512383	37.070403	-1.250125	0.912050	129.594614	90.144745	-14.483775	7.840735	52.453739	-6.960680	16.004056	123.361972	88.613128	0.723522	12.993538
2.067797	3.661025	-5.675376	71.459050	0.251830	0.975994	0.623254	8.062573	-0.646679	-1.684198	20.652601	0.360456	45.902683	18.277039	0.000000	3.275480	-0.610906	0.116328	17.420036	0.304037	43.311126	-12.454833	0.000000	-0.180170	0.219882	-0.912434	-0.334593	0.292443	-0.969461	-0.296001	0.534621	-0.969461	-0.205916	0.534621	-0.798380	-0.167305	0.448383	-0.741353	-0.102949	0.340597	-0.684325	-1.286933	2.487348	-5.074684	0.000000	0.000000	-6.442408	-1.957026	-9.752800	36.943351	0.371983	3.556222	128.844705	89.511171	-16.784859	5.435034	51.223354	-6.564079	17.051259	124.376643	88.221755	1.790005	12.904917
2.084746	3.610703	-6.067284	70.602154	0.250779	0.975279	0.623919	8.803343	-0.536240	-1.016562	20.947612	0.365605	45.989201	18.306282	0.000000	3.740936	-0.584477	-0.218442	17.645976	0.307980	43.178975	-13.176002	0.000000	-0.182081	0.297060	-0.919620	-0.338142	0.395089	-0.977096	-0.299140	0.722271	-0.977096	-0.208100	0.722271	-0.804667	-0.169080	0.605764	-0.747191	-0.104041	0.460145	-0.689715	-1.300584	3.360398	-5.114649	0.000000	0.000000	-7.063143	-2.979435	-7.991173	37.005167	1.791940	5.990158	128.052245	89.137364	-18.879444	2.666659	50.086264	-6.432371	17.852277	125.576703	87.600462	2.408925	12.634985
2.101695	3.571815	-6.446322	69.732104	0.249660	0.974599	0.624802	9.539298	-0.392996	-0.331171	21.219983	0.370359	46.037438	18.341785	0.000000	4.214922	-0.581240	-0.560752	17.889172	0.312225	43.028050	-13.913502	0.000000	-0.186972	0.373454	-0.925264	-0.347226	0.496694	-0.983093	-0.307176	0.908017	-0.983093	-0.213690	0.908017	-0.809606	-0.173622	0.761548	-0.751777	-0.106836	0.578481	-0.693948	-1.335523	4.224589	-5.146043	0.000000	0.000000	-7.747890	-3.971940	-6.264377	37.232856	2.969759	8.201653	127.227318	88.984303	-20.684127	-0.248399	49.041414	-6.532987	18.378526	126.932158	87.056294	2.585753	12.383156
2.118644	3.527847	-6.806823	68.854048	0.248532	0.973970	0.625958	10.271625	-0.231116	0.370391	21.471474	0.374748	46.046683	18.380665	0.000000	4.697300	-0.592005	-0.941948	18.136972	0.316550	42.869384	-14.610275	0.000000	-0.196729	0.444497	-0.920904	-0.365345	0.591180	-0.978460	-0.323206	1.080749	-0.978460	-0.224841	1.080749	-0.805791	-0.182682	0.906417	-0.748234	-0.112411	0.688525	-0.690678	-1.405214	5.028234	-5.121791	0.000000	0.000000	-8.573865	-4.915554	-4.650311	37.591000	3.873388	10.158190	126.413382	88.871610	-22.087429	-2.980180	48.124353	-6.819523	18.675033	128.376971	86.692566	2.335610	12.260725
2.135593	3.459921	-7.142750	67.973044	0.247458	0.973407	0.627423	11.004010	-0.068585	1.100750	21.710485	0.378919	46.020921	18.417274	0.000000	5.186387	-0.605638	-1.410129	18.375978	0.320721	42.726739	-15.177000	0.000000	-0.213386	0.506118	-0.899026	-0.396280	0.673136	-0.955215	-0.350572	1.230574	-0.955215	-0.243879	1.230574	-0.786648	-0.198151	1.032075	-0.730459	-0.121929	0.783976	-0.674270	-1.524197	5.725304	-5.000113	0.000000	0.000000	-9.574307	-5.780967	-3.178710	38.062483	4.522828	11.790236	125.668704	88.774696	-22.925645	-5.101279	47.373744	-7.227835	18.783952	129.834198	86.255960	1.830602	12.310308
2.152542	3.361476	-7.470048	67.115850	0.246476	0.972897	0.629164	11.749600	0.092826	1.832429	21.937638	0.382884	45.962888	18.450318	0.000000	5.701593	-0.627356	-1.968947	18.607549	0.324763	42.620284	-15.567454	0.000000	-0.233976	0.557966	-0.860821	-0.434517	0.742094	-0.914623	-0.384399	1.356638	-0.914623	-0.267411	1.356638	-0.753219	-0.217270	1.137804	-0.699417	-0.133694	0.864289	-0.645616	-1.671268	6.311819	-4.787631	0.000000	0.000000	-10.745683	-6.550395	-1.850604	38.624578	4.969771	13.050084	125.036827	88.676347	-23.046124	-6.283117	46.797591	-7.679504	18.709439	131.226624	85.772857	1.278151	12.543378
